{"title":"Sri Kannika Parameshwari (2013) MSK DVD Rip x264 AAC 700MB - Sha","uid":10541764,"size":756455768,"categoryP":"video","categoryS":"movies","magnet":"?xt=urn:btih:0bfac1e414348416b85ea3feb4368aa17b76d2d9&amp;dn=Sri+Kannika+Parameshwari+%282013%29+MSK+DVD+Rip+x264+AAC+700MB+-+Sha&amp;tr=udp%3A%2F%2Ftracker.openbittorrent.com%3A80&amp;tr=udp%3A%2F%2Fopen.demonii.com%3A1337&amp;tr=udp%3A%2F%2Ftracker.coppersurfer.tk%3A6969&amp;tr=udp%3A%2F%2Fexodus.desync.com%3A6969","seeders":1,"leechers":0,"uploader":"TeamXDN","files":-1,"time":1405236654,"description":"Sri Kannika Parameshwari (2013) MSK DVD Rip x264 AAC 700MB - Shammu\n\nFormat : MPEG-4\nFormat profile : Base Media\nCodec ID : isom\nFile size : 721 MiB\nDuration : 1h 59mn\nOverall bit rate mode : Variable\nOverall bit rate : 845 Kbps\nEncoded date : UTC 2014-07-13 03:43:21\nTagged date : UTC 2014-07-13 03:43:21\n\nVideo\nID : 1\nFormat : AVC\nFormat/Info : Advanced Video Codec\nFormat profile : &lt;a class=&quot;__cf_email__&quot; href=&quot;/cdn-cgi/l/email-protection&quot; data-cfemail=&quot;fdb5949a95bdb1cfd3cc&quot;&gt;[email&amp;#160;protected]&lt;/a&gt;&lt;script cf-hash='f9e31' type=&quot;text/javascript&quot;&gt;\n/* &lt;![CDATA[ */!function(){try{var t=&quot;currentScript&quot;in document?document.currentScript:function(){for(var t=document.getElementsByTagName(&quot;script&quot;),e=t.length;e--;)if(t[e].getAttribute(&quot;cf-hash&quot;))return t[e]}();if(t&amp;&amp;t.previousSibling){var e,r,n,i,c=t.previousSibling,a=c.getAttribute(&quot;data-cfemail&quot;);if(a){for(e=&quot;&quot;,r=parseInt(a.substr(0,2),16),n=2;a.length-n;n+=2)i=parseInt(a.substr(n,2),16)^r,e+=String.fromCharCode(i);e=document.createTextNode(e),c.parentNode.replaceChild(e,c)}}}catch(u){}}();/* ]]&gt; */&lt;/script&gt;\nFormat settings, CABAC : Yes\nFormat settings, ReFrames : 4 frames\nCodec ID : avc1\nCodec ID/Info : Advanced Video Coding\nDuration : 1h 59mn\nBit rate : 753 Kbps\nMaximum bit rate : 3 150 Kbps\nWidth : 608 pixels\nHeight : 256 pixels\nDisplay aspect ratio : 2.40:1\nFrame rate mode : Constant\nFrame rate : 29.970 fps\nColor space : YUV\nChroma subsampling : 4:2:0\nBit depth : 8 bits\nScan type : Progressive\nBits/(Pixel*Frame) : 0.161\nStream size : 643 MiB (89%)\nWriting library : x264 core 142 r2431 ac76440\nEncoded date : UTC 2014-07-12 22:43:08\nTagged date : UTC 2014-07-13 03:43:48\n\nAudio\nID : 2\nFormat : AAC\nFormat/Info : Advanced Audio Codec\nFormat profile : LC\nCodec ID : 40\nDuration : 1h 59mn\nBit rate mode : Variable\nBit rate : 88.0 Kbps\nMaximum bit rate : 145 Kbps\nChannel(s) : 2 channels\nChannel positions : Front: L R\nSampling rate : 48.0 KHz\nCompression mode : Lossy\nStream size : 75.1 MiB (10%)\nEncoded date : UTC 2014-07-12 23:17:23\nTagged date : UTC 2014-07-13 03:43:48","torrent":{"xt":"urn:btih:0bfac1e414348416b85ea3feb4368aa17b76d2d9","amp;dn":"Sri+Kannika+Parameshwari+%282013%29+MSK+DVD+Rip+x264+AAC+700MB+-+Sha","amp;tr":["udp%3A%2F%2Ftracker.openbittorrent.com%3A80","udp%3A%2F%2Fopen.demonii.com%3A1337","udp%3A%2F%2Ftracker.coppersurfer.tk%3A6969","udp%3A%2F%2Fexodus.desync.com%3A6969"],"infoHash":"0bfac1e414348416b85ea3feb4368aa17b76d2d9","infoHashBuffer":{"type":"Buffer","data":[11,250,193,228,20,52,132,22,184,94,163,254,180,54,138,161,123,118,210,217]},"announce":[],"urlList":[]}}